<?xml version="1.0" encoding="utf-8"?>
<!-- Generator: Adobe Illustrator 24.3.0, SVG Export Plug-In . SVG Version: 6.00 Build 0)  -->
<!DOCTYPE svg PUBLIC "-//W3C//DTD SVG 1.1//EN" "http://www.w3.org/Graphics/SVG/1.1/DTD/svg11.dtd" [
	<!ENTITY ns_extend "http://ns.adobe.com/Extensibility/1.0/">
	<!ENTITY ns_ai "http://ns.adobe.com/AdobeIllustrator/10.0/">
	<!ENTITY ns_graphs "http://ns.adobe.com/Graphs/1.0/">
	<!ENTITY ns_vars "http://ns.adobe.com/Variables/1.0/">
	<!ENTITY ns_imrep "http://ns.adobe.com/ImageReplacement/1.0/">
	<!ENTITY ns_sfw "http://ns.adobe.com/SaveForWeb/1.0/">
	<!ENTITY ns_custom "http://ns.adobe.com/GenericCustomNamespace/1.0/">
	<!ENTITY ns_adobe_xpath "http://ns.adobe.com/XPath/1.0/">
]>
<svg version="1.1" id="Слой_1" xmlns:x="&ns_extend;" xmlns:i="&ns_ai;" xmlns:graph="&ns_graphs;"
	 xmlns="http://www.w3.org/2000/svg" xmlns:xlink="http://www.w3.org/1999/xlink" x="0px" y="0px" width="491px" height="103px"
	 viewBox="0 0 491 103" style="enable-background:new 0 0 491 103;" xml:space="preserve">
<style type="text/css">
	.st0{clip-path:url(#SVGID_2_);fill:#EA0303;}
	.st1{clip-path:url(#SVGID_4_);fill:#EA0303;}
	.st2{clip-path:url(#SVGID_6_);fill:#EA0303;}
	.st3{fill:#FFFFFF;}
</style>
<metadata>
	<sfw  xmlns="&ns_sfw;">
		<slices></slices>
		<sliceSourceBounds  bottomLeftOrigin="true" height="103.3" width="490.9" x="0" y="0"></sliceSourceBounds>
	</sfw>
</metadata>
<g>
	<defs>
		<rect id="SVGID_1_" y="-0.3" width="490.9" height="103.3"/>
	</defs>
	<clipPath id="SVGID_2_">
		<use xlink:href="#SVGID_1_"  style="overflow:visible;"/>
	</clipPath>
	<rect y="-0.3" class="st0" width="1" height="85"/>
</g>
<g>
	<defs>
		<rect id="SVGID_3_" y="-0.3" width="490.9" height="103.3"/>
	</defs>
	<clipPath id="SVGID_4_">
		<use xlink:href="#SVGID_3_"  style="overflow:visible;"/>
	</clipPath>
	<rect x="167.9" y="-0.3" class="st1" width="1" height="85"/>
</g>
<g>
	<defs>
		<rect id="SVGID_5_" y="-0.3" width="490.9" height="103.3"/>
	</defs>
	<clipPath id="SVGID_6_">
		<use xlink:href="#SVGID_5_"  style="overflow:visible;"/>
	</clipPath>
	<rect x="342.3" y="-0.3" class="st2" width="1" height="85"/>
</g>
<g>
	<defs>
		<rect id="SVGID_7_" y="-0.3" width="490.9" height="103.3"/>
	</defs>
	<clipPath id="SVGID_8_">
		<use xlink:href="#SVGID_7_"  style="overflow:visible;"/>
	</clipPath>
</g>
<g>
	<defs>
		<rect id="SVGID_9_" y="-0.3" width="490.9" height="103.3"/>
	</defs>
	<clipPath id="SVGID_10_">
		<use xlink:href="#SVGID_9_"  style="overflow:visible;"/>
	</clipPath>
</g>
<g>
	<defs>
		<rect id="SVGID_11_" y="-0.3" width="490.9" height="103.3"/>
	</defs>
	<clipPath id="SVGID_12_">
		<use xlink:href="#SVGID_11_"  style="overflow:visible;"/>
	</clipPath>
</g>
<g>
	<path class="st3" d="M16.6,72.6V82h-1.3v-8.2H9.8V82H8.5v-9.4H16.6z"/>
	<path class="st3" d="M26,73.5c0.7,0.6,1,1.4,1,2.4s-0.3,1.8-1,2.4c-0.7,0.6-1.7,0.9-2.9,0.9h-2.3V82h-1.3v-9.4h3.7
		C24.4,72.6,25.3,72.9,26,73.5z M25.1,77.5c0.4-0.4,0.7-0.9,0.7-1.6s-0.2-1.2-0.7-1.6s-1.1-0.5-1.9-0.5h-2.3V78h2.3
		C24,78,24.6,77.8,25.1,77.5z"/>
	<path class="st3" d="M35.7,80.8V82h-6.8v-9.4h6.6v1.2h-5.3v2.9H35v1.1h-4.7v3H35.7z"/>
	<path class="st3" d="M46.6,82l0-6.8l-3.4,5.7h-0.6l-3.4-5.7V82h-1.3v-9.4H39l3.9,6.6l3.9-6.6h1.1l0,9.4H46.6z"/>
	<path class="st3" d="M50.8,72.6h1.3v7.2l5.6-7.2h1.2V82h-1.3v-7.2L52,82h-1.2V72.6z"/>
	<path class="st3" d="M67.9,79.7h-5l-1,2.3h-1.4l4.3-9.4h1.3l4.3,9.4H69L67.9,79.7z M67.5,78.6l-2-4.6l-2,4.6H67.5z"/>
	<path class="st3" d="M79.7,72.6V82h-1.3v-8.2h-4.2l-0.1,2.8c0,1.3-0.1,2.3-0.3,3.2c-0.2,0.8-0.4,1.4-0.8,1.8
		c-0.4,0.4-0.8,0.6-1.4,0.6c-0.3,0-0.6,0-0.8-0.1l0.1-1.2c0.1,0,0.3,0.1,0.4,0.1c0.4,0,0.7-0.2,0.9-0.5c0.2-0.3,0.4-0.8,0.5-1.4
		s0.2-1.4,0.2-2.4l0.1-4H79.7z"/>
	<path class="st3" d="M89.3,76.6c0.6,0.5,0.9,1.2,0.9,2.2c0,1-0.3,1.8-1,2.3c-0.6,0.5-1.6,0.8-2.7,0.8h-3.9v-9.4H84v3.3h2.8
		C87.9,75.9,88.7,76.1,89.3,76.6z M88.2,80.4c0.4-0.4,0.6-0.9,0.6-1.5c0-1.3-0.8-1.9-2.4-1.9H84v4h2.5C87.2,81,87.8,80.8,88.2,80.4z
		"/>
	<path class="st3" d="M100.3,72.6V82h-1.3v-4.2h-5.4V82h-1.3v-9.4h1.3v4h5.4v-4H100.3z"/>
	<path class="st3" d="M104.9,81.5c-0.8-0.4-1.4-1-1.8-1.7c-0.4-0.7-0.7-1.6-0.7-2.5s0.2-1.7,0.7-2.5c0.4-0.7,1-1.3,1.8-1.7
		s1.6-0.6,2.6-0.6c0.9,0,1.8,0.2,2.5,0.6s1.4,1,1.8,1.7c0.4,0.7,0.6,1.5,0.6,2.5c0,0.9-0.2,1.7-0.6,2.5c-0.4,0.7-1,1.3-1.8,1.7
		s-1.6,0.6-2.5,0.6C106.5,82.1,105.6,81.9,104.9,81.5z M109.3,80.5c0.5-0.3,1-0.7,1.3-1.3c0.3-0.6,0.5-1.2,0.5-1.8s-0.2-1.3-0.5-1.8
		c-0.3-0.6-0.8-1-1.3-1.3c-0.6-0.3-1.2-0.5-1.9-0.5s-1.3,0.2-1.9,0.5c-0.6,0.3-1,0.7-1.3,1.3c-0.3,0.5-0.5,1.2-0.5,1.8
		s0.2,1.3,0.5,1.8c0.3,0.5,0.8,1,1.3,1.3c0.6,0.3,1.2,0.5,1.9,0.5S108.7,80.8,109.3,80.5z"/>
	<path class="st3" d="M121.4,80.8V82h-6.8v-9.4h6.6v1.2h-5.3v2.9h4.7v1.1h-4.7v3H121.4z"/>
	<path class="st3" d="M17.2,98.1l0-6.8L13.8,97h-0.6l-3.4-5.7v6.8H8.5v-9.4h1.1l3.9,6.6l3.9-6.6h1.1l0,9.4H17.2z"/>
	<path class="st3" d="M28.3,88.7v9.4H27v-2.7h-2.6c-0.2,0-0.3,0-0.4,0l-1.9,2.8h-1.4l2.1-3c-0.7-0.2-1.2-0.6-1.5-1.1
		c-0.4-0.5-0.5-1.2-0.5-1.9c0-1.1,0.3-1.9,1-2.5c0.7-0.6,1.6-0.9,2.8-0.9H28.3z M22.7,93.7c0.4,0.4,1,0.6,1.8,0.6H27v-4.4h-2.4
		c-0.8,0-1.4,0.2-1.9,0.6c-0.4,0.4-0.6,0.9-0.6,1.6C22.1,92.8,22.3,93.3,22.7,93.7z"/>
	<path class="st3" d="M32.9,97.6c-0.8-0.4-1.3-1-1.8-1.7c-0.4-0.7-0.6-1.5-0.6-2.5c0-0.9,0.2-1.7,0.6-2.5c0.4-0.7,1-1.3,1.8-1.7
		s1.6-0.6,2.5-0.6c0.7,0,1.4,0.1,2,0.4s1.1,0.6,1.6,1.1l-0.9,0.8c-0.7-0.7-1.6-1.1-2.6-1.1c-0.7,0-1.3,0.2-1.9,0.5
		c-0.6,0.3-1,0.7-1.3,1.3c-0.3,0.5-0.5,1.2-0.5,1.8s0.2,1.3,0.5,1.8c0.3,0.5,0.8,1,1.3,1.3c0.6,0.3,1.2,0.5,1.9,0.5
		c1,0,1.9-0.4,2.6-1.1l0.9,0.8c-0.4,0.5-1,0.8-1.6,1.1c-0.6,0.3-1.3,0.4-2,0.4C34.5,98.2,33.6,98,32.9,97.6z"/>
	<path class="st3" d="M42.3,97.6c-0.8-0.4-1.4-1-1.8-1.7c-0.4-0.7-0.7-1.6-0.7-2.5s0.2-1.7,0.7-2.5c0.4-0.7,1-1.3,1.8-1.7
		s1.6-0.6,2.6-0.6c0.9,0,1.8,0.2,2.5,0.6s1.4,1,1.8,1.7c0.4,0.7,0.6,1.5,0.6,2.5c0,0.9-0.2,1.7-0.6,2.5c-0.4,0.7-1,1.3-1.8,1.7
		s-1.6,0.6-2.5,0.6C43.9,98.2,43.1,98,42.3,97.6z M46.7,96.6c0.5-0.3,1-0.7,1.3-1.3c0.3-0.6,0.5-1.2,0.5-1.8s-0.2-1.3-0.5-1.8
		c-0.3-0.6-0.8-1-1.3-1.3c-0.6-0.3-1.2-0.5-1.9-0.5S43.5,90,43,90.3c-0.6,0.3-1,0.7-1.3,1.3c-0.3,0.5-0.5,1.2-0.5,1.8
		s0.2,1.3,0.5,1.8c0.3,0.5,0.8,1,1.3,1.3c0.6,0.3,1.2,0.5,1.9,0.5S46.2,96.9,46.7,96.6z"/>
</g>
<g>
	<path class="st3" d="M182.3,76.5h-2v4.1H179v-9.4h1.3v4.1h2l3-4.1h1.4l-3.4,4.5l3.5,4.8h-1.5L182.3,76.5z"/>
	<path class="st3" d="M194.8,72.1c0.7,0.6,1,1.4,1,2.4s-0.3,1.8-1,2.4c-0.7,0.6-1.7,0.9-2.9,0.9h-2.3v2.8h-1.3v-9.4h3.7
		C193.1,71.2,194.1,71.5,194.8,72.1z M193.8,76.1c0.4-0.4,0.7-0.9,0.7-1.6s-0.2-1.2-0.7-1.6s-1.1-0.5-1.9-0.5h-2.3v4.2h2.3
		C192.7,76.6,193.4,76.4,193.8,76.1z"/>
	<path class="st3" d="M203.3,78.3h-5l-1,2.3h-1.4l4.3-9.4h1.3l4.3,9.4h-1.4L203.3,78.3z M202.9,77.2l-2-4.6l-2,4.6H202.9z"/>
	<path class="st3" d="M216.3,78.8c-0.9,0.7-2.1,1.1-3.7,1.1v1h-1.2v-1c-1.6-0.1-2.8-0.4-3.7-1.2c-0.9-0.7-1.3-1.7-1.3-2.9
		c0-1.2,0.4-2.2,1.3-2.9c0.9-0.7,2.1-1.1,3.7-1.2v-1h1.2v1c1.6,0.1,2.8,0.5,3.7,1.2s1.3,1.7,1.3,2.9
		C217.6,77.1,217.2,78.1,216.3,78.8z M208.7,78c0.6,0.5,1.5,0.8,2.7,0.9v-6c-1.2,0.1-2.1,0.4-2.7,0.9c-0.6,0.5-0.9,1.2-0.9,2.1
		C207.7,76.8,208,77.5,208.7,78z M215.4,78c0.6-0.5,0.9-1.2,0.9-2.2c0-0.9-0.3-1.6-1-2.1c-0.6-0.5-1.5-0.8-2.7-0.9v6
		C213.8,78.9,214.8,78.6,215.4,78z"/>
	<path class="st3" d="M226,72.4h-3.2v8.2h-1.3v-8.2h-3.2v-1.2h7.7V72.4z"/>
	<path class="st3" d="M229.2,80.1c-0.8-0.4-1.4-1-1.8-1.7c-0.4-0.7-0.7-1.6-0.7-2.5s0.2-1.7,0.7-2.5c0.4-0.7,1-1.3,1.8-1.7
		s1.6-0.6,2.6-0.6c0.9,0,1.8,0.2,2.5,0.6s1.4,1,1.8,1.7c0.4,0.7,0.6,1.5,0.6,2.5c0,0.9-0.2,1.7-0.6,2.5c-0.4,0.7-1,1.3-1.8,1.7
		s-1.6,0.6-2.5,0.6C230.8,80.7,229.9,80.5,229.2,80.1z M233.6,79.1c0.5-0.3,1-0.7,1.3-1.3c0.3-0.6,0.5-1.2,0.5-1.8s-0.2-1.3-0.5-1.8
		c-0.3-0.6-0.8-1-1.3-1.3c-0.6-0.3-1.2-0.5-1.9-0.5s-1.3,0.2-1.9,0.5c-0.6,0.3-1,0.7-1.3,1.3c-0.3,0.5-0.5,1.2-0.5,1.8
		s0.2,1.3,0.5,1.8c0.3,0.5,0.8,1,1.3,1.3c0.6,0.3,1.2,0.5,1.9,0.5S233,79.4,233.6,79.1z"/>
	<path class="st3" d="M246.2,76.6c0.3,0.4,0.5,0.9,0.5,1.5c0,0.8-0.3,1.4-0.9,1.9s-1.5,0.7-2.6,0.7h-4.3v-9.4h4c1,0,1.8,0.2,2.4,0.6
		c0.6,0.4,0.9,1,0.9,1.8c0,0.5-0.1,0.9-0.4,1.3c-0.3,0.4-0.6,0.6-1.1,0.8C245.4,75.9,245.9,76.2,246.2,76.6z M240.2,75.4h2.6
		c0.7,0,1.2-0.1,1.5-0.4c0.3-0.3,0.5-0.6,0.5-1.1c0-0.5-0.2-0.9-0.5-1.1s-0.8-0.4-1.5-0.4h-2.6V75.4z M245.3,77.9
		c0-0.5-0.2-0.9-0.5-1.2c-0.4-0.3-0.9-0.4-1.6-0.4h-2.9v3.2h2.9C244.6,79.6,245.3,79,245.3,77.9z"/>
	<path class="st3" d="M255.6,75.2c0.6,0.5,0.9,1.2,0.9,2.2c0,1-0.3,1.8-1,2.3c-0.6,0.5-1.6,0.8-2.7,0.8h-3.9v-9.4h1.3v3.3h2.8
		C254.1,74.5,255,74.7,255.6,75.2z M254.5,79c0.4-0.4,0.6-0.9,0.6-1.5c0-1.3-0.8-1.9-2.4-1.9h-2.5v4h2.5
		C253.5,79.6,254.1,79.4,254.5,79z M258,71.2h1.3v9.4H258V71.2z"/>
	<path class="st3" d="M269,79.4v1.2h-6.8v-9.4h6.6v1.2h-5.3v2.9h4.7v1.1h-4.7v3H269z"/>
	<path class="st3" d="M180.7,96.2c-0.8-0.4-1.3-1-1.8-1.7c-0.4-0.7-0.6-1.5-0.6-2.5c0-0.9,0.2-1.7,0.6-2.5c0.4-0.7,1-1.3,1.8-1.7
		s1.6-0.6,2.5-0.6c0.7,0,1.4,0.1,2,0.4s1.1,0.6,1.6,1.1l-0.9,0.8c-0.7-0.7-1.6-1.1-2.6-1.1c-0.7,0-1.3,0.2-1.9,0.5
		c-0.6,0.3-1,0.7-1.3,1.3c-0.3,0.5-0.5,1.2-0.5,1.8s0.2,1.3,0.5,1.8c0.3,0.5,0.8,1,1.3,1.3c0.6,0.3,1.2,0.5,1.9,0.5
		c1,0,1.9-0.4,2.6-1.1l0.9,0.8c-0.4,0.5-1,0.8-1.6,1.1c-0.6,0.3-1.3,0.4-2,0.4C182.3,96.8,181.4,96.6,180.7,96.2z"/>
	<path class="st3" d="M195.3,91.3c0.6,0.5,0.9,1.2,0.9,2.2c0,1-0.3,1.8-1,2.3c-0.6,0.5-1.6,0.8-2.7,0.8h-3.9v-9.4h1.3v3.3h2.8
		C193.9,90.6,194.8,90.8,195.3,91.3z M194.3,95.1c0.4-0.4,0.6-0.9,0.6-1.5c0-1.3-0.8-1.9-2.4-1.9H190v4h2.5
		C193.3,95.7,193.9,95.5,194.3,95.1z M197.7,87.3h1.3v9.4h-1.3V87.3z"/>
	<path class="st3" d="M208.5,88.2c0.7,0.6,1,1.4,1,2.4s-0.3,1.8-1,2.4c-0.7,0.6-1.7,0.9-2.9,0.9h-2.3v2.8H202v-9.4h3.7
		C206.9,87.3,207.8,87.6,208.5,88.2z M207.5,92.2c0.4-0.4,0.7-0.9,0.7-1.6s-0.2-1.2-0.7-1.6s-1.1-0.5-1.9-0.5h-2.3v4.2h2.3
		C206.5,92.7,207.1,92.5,207.5,92.2z"/>
	<path class="st3" d="M218.1,91.3c0.6,0.5,0.9,1.2,0.9,2.2c0,1-0.3,1.8-1,2.3c-0.6,0.5-1.6,0.8-2.7,0.8h-3.9v-9.4h1.3v3.3h2.8
		C216.7,90.6,217.5,90.8,218.1,91.3z M217,95.1c0.4-0.4,0.6-0.9,0.6-1.5c0-1.3-0.8-1.9-2.4-1.9h-2.5v4h2.5
		C216,95.7,216.6,95.5,217,95.1z M220.5,87.3h1.3v9.4h-1.3V87.3z"/>
</g>
<g>
	<path class="st3" d="M353.9,80.4c-0.8-0.4-1.3-1-1.8-1.7c-0.4-0.7-0.6-1.5-0.6-2.5c0-0.9,0.2-1.7,0.6-2.5c0.4-0.7,1-1.3,1.8-1.7
		c0.8-0.4,1.6-0.6,2.5-0.6c0.7,0,1.4,0.1,2,0.4s1.1,0.6,1.6,1.1l-0.9,0.8c-0.7-0.7-1.6-1.1-2.6-1.1c-0.7,0-1.3,0.2-1.9,0.5
		c-0.6,0.3-1,0.7-1.3,1.3c-0.3,0.5-0.5,1.2-0.5,1.8s0.2,1.3,0.5,1.8c0.3,0.5,0.8,1,1.3,1.3c0.6,0.3,1.2,0.5,1.9,0.5
		c1,0,1.9-0.4,2.6-1.1l0.9,0.8c-0.4,0.5-1,0.8-1.6,1.1c-0.6,0.3-1.3,0.4-2,0.4C355.5,81.1,354.7,80.9,353.9,80.4z"/>
	<path class="st3" d="M370,71.6V81h-1.3v-8.2h-5.4V81h-1.3v-9.4H370z"/>
	<path class="st3" d="M379.7,79.8V81h-6.8v-9.4h6.6v1.2h-5.3v2.9h4.7v1.1h-4.7v3H379.7z"/>
	<path class="st3" d="M391.2,79.8v3.3h-1.2V81h-8.1v-9.4h1.3v8.2h5.2v-8.2h1.3v8.2H391.2z"/>
	<path class="st3" d="M392.9,71.6h1.3v7.2l5.6-7.2h1.2V81h-1.3v-7.2l-5.6,7.2h-1.2V71.6z"/>
	<path class="st3" d="M404,71.6h1.3v7.2l5.6-7.2h1.2V81h-1.3v-7.2l-5.6,7.2H404V71.6z"/>
	<path class="st3" d="M352.3,87.7h1.3v7.2l5.6-7.2h1.2v9.4h-1.3v-7.2l-5.6,7.2h-1.2V87.7z"/>
	<path class="st3" d="M375.6,97.1l0-6.8l-3.4,5.7h-0.6l-3.4-5.7v6.8h-1.3v-9.4h1.1l3.9,6.6l3.9-6.6h1.1l0,9.4H375.6z"/>
	<path class="st3" d="M385.9,94.7h-5l-1,2.3h-1.4l4.3-9.4h1.3l4.3,9.4H387L385.9,94.7z M385.5,93.6l-2-4.6l-2,4.6H385.5z"/>
	<path class="st3" d="M396.5,88.5c0.7,0.6,1,1.4,1,2.4s-0.3,1.8-1,2.4c-0.7,0.6-1.7,0.9-2.9,0.9h-2.3v2.8H390v-9.4h3.7
		C394.9,87.7,395.8,88,396.5,88.5z M395.6,92.5c0.4-0.4,0.7-0.9,0.7-1.6s-0.2-1.2-0.7-1.6s-1.1-0.5-1.9-0.5h-2.3v4.2h2.3
		C394.5,93.1,395.1,92.9,395.6,92.5z"/>
	<path class="st3" d="M399.4,87.7h1.3v7.2l5.6-7.2h1.2v9.4h-1.3v-7.2l-5.6,7.2h-1.2V87.7z"/>
	<path class="st3" d="M418.6,87.7v9.4h-1.3v-4.2h-5.4v4.2h-1.3v-9.4h1.3v4h5.4v-4H418.6z"/>
	<path class="st3" d="M427.6,94.7h-5l-1,2.3h-1.4l4.3-9.4h1.3l4.3,9.4h-1.4L427.6,94.7z M427.1,93.6l-2-4.6l-2,4.6H427.1z"/>
	<path class="st3" d="M440.6,95.9v3.2h-1.2v-2.1h-7.7l0,2.1h-1.2l0-3.2h0.5c0.6,0,1-0.5,1.2-1.4c0.2-0.9,0.4-2.2,0.4-3.8l0.1-3h6.6
		v8.2H440.6z M433.4,94.1c-0.2,0.9-0.4,1.5-0.8,1.8h5.3v-7.1h-4.1l-0.1,2C433.7,92.1,433.6,93.2,433.4,94.1z"/>
	<path class="st3" d="M449.2,91.7c0.6,0.5,0.9,1.2,0.9,2.2c0,1-0.3,1.8-1,2.3c-0.6,0.5-1.6,0.8-2.7,0.8h-3.9v-9.4h1.3v3.3h2.8
		C447.7,90.9,448.6,91.2,449.2,91.7z M448.1,95.5c0.4-0.4,0.6-0.9,0.6-1.5c0-1.3-0.8-1.9-2.4-1.9h-2.5v4h2.5
		C447.1,96,447.7,95.8,448.1,95.5z M451.6,87.7h1.3v9.4h-1.3V87.7z"/>
</g>
</svg>
