<?xml version="1.0" encoding="utf-8"?>
<!-- Generator: Adobe Illustrator 24.1.0, SVG Export Plug-In . SVG Version: 6.00 Build 0)  -->
<svg version="1.1" id="Слой_1" xmlns="http://www.w3.org/2000/svg" xmlns:xlink="http://www.w3.org/1999/xlink" x="0px" y="0px"
	 viewBox="0 0 96 65.16" style="enable-background:new 0 0 96 65.16;" xml:space="preserve">
<style type="text/css">
	.st0{fill:#FFFFFF;}
</style>
<g>
	<path class="st0" d="M24.38,61.66l-1.57-4.1h-0.02c0.03,0.32,0.04,0.71,0.04,1.16v2.95h-0.5v-4.63h0.81l1.47,3.82h0.02l1.48-3.82
		h0.8v4.63h-0.54v-2.98c0-0.34,0.01-0.71,0.04-1.12H26.4l-1.58,4.1H24.38z"/>
</g>
<polygon class="st0" points="31.23,61.66 28.64,61.66 28.64,57.03 31.23,57.03 31.23,57.51 29.18,57.51 29.18,59 31.1,59 
	31.1,59.48 29.18,59.48 29.18,61.18 31.23,61.18 "/>
<g>
	<path class="st0" d="M34.87,59.71l-0.54-1.43c-0.07-0.18-0.14-0.4-0.21-0.67c-0.05,0.2-0.11,0.43-0.2,0.67l-0.54,1.43H34.87z
		 M35.62,61.66l-0.58-1.47h-1.86l-0.57,1.47h-0.54l1.83-4.65h0.45l1.82,4.65H35.62z"/>
</g>
<polygon class="st0" points="38.69,61.66 38.15,61.66 38.15,57.51 36.69,57.51 36.69,57.03 40.16,57.03 40.16,57.51 38.69,57.51 "/>
<g>
	<path class="st0" d="M45.5,61.66l-1.57-4.1H43.9c0.03,0.32,0.04,0.71,0.04,1.16v2.95h-0.5v-4.63h0.81l1.47,3.82h0.02l1.48-3.82h0.8
		v4.63H47.5v-2.98c0-0.34,0.01-0.71,0.04-1.12h-0.03l-1.58,4.1H45.5z"/>
	<path class="st0" d="M51.93,59.71l-0.54-1.43c-0.07-0.18-0.14-0.4-0.21-0.67c-0.05,0.2-0.11,0.43-0.2,0.67l-0.54,1.43H51.93z
		 M52.67,61.66l-0.58-1.47h-1.86l-0.57,1.47h-0.54l1.83-4.65h0.45l1.82,4.65H52.67z"/>
	<path class="st0" d="M54.86,59.28h0.74c0.38,0,0.66-0.08,0.84-0.23c0.18-0.15,0.27-0.38,0.27-0.68c0-0.31-0.09-0.53-0.27-0.66
		c-0.18-0.14-0.47-0.2-0.87-0.2h-0.7V59.28z M54.86,59.74v1.93h-0.54v-4.63h1.27c0.57,0,0.99,0.11,1.26,0.33
		c0.27,0.22,0.41,0.54,0.41,0.98c0,0.61-0.31,1.03-0.93,1.24l1.26,2.08h-0.64l-1.12-1.93H54.86z"/>
</g>
<polygon class="st0" points="62.13,61.66 61.49,61.66 59.81,59.42 59.32,59.85 59.32,61.66 58.78,61.66 58.78,57.03 59.32,57.03 
	59.32,59.33 61.42,57.03 62.06,57.03 60.2,59.04 "/>
<polygon class="st0" points="65.8,61.66 63.22,61.66 63.22,57.03 65.8,57.03 65.8,57.51 63.76,57.51 63.76,59 65.68,59 65.68,59.48 
	63.76,59.48 63.76,61.18 65.8,61.18 "/>
<polygon class="st0" points="68.71,61.66 68.17,61.66 68.17,57.51 66.7,57.51 66.7,57.03 70.17,57.03 70.17,57.51 68.71,57.51 "/>
<rect x="13.56" y="58.83" class="st0" width="5.9" height="0.31"/>
<rect x="72.93" y="58.83" class="st0" width="5.9" height="0.31"/>
<g>
	<path class="st0" d="M10.86,50.79H3.45v-0.93c0.63,0,1.1-0.05,1.4-0.14c0.29-0.09,0.49-0.3,0.58-0.62c0.09-0.32,0.14-0.8,0.14-1.45
		V37.8H4.59c-0.79,0-1.39,0.09-1.78,0.28c-0.4,0.19-0.68,0.51-0.85,0.95c-0.17,0.45-0.34,1.06-0.5,1.84H0.38l0.24-4.28h13.17
		l0.2,4.28H12.9c-0.16-0.78-0.33-1.39-0.51-1.84c-0.18-0.45-0.46-0.76-0.85-0.95c-0.39-0.19-0.99-0.28-1.79-0.28H8.79v9.86
		c0,0.65,0.05,1.13,0.14,1.45c0.09,0.32,0.29,0.52,0.58,0.62c0.3,0.09,0.75,0.14,1.35,0.14V50.79z"/>
	<path class="st0" d="M23.76,46.23h-5.58l0.39-1.12h4.8L23.76,46.23z M19.03,50.79H14.1v-0.93c0.37,0,0.68-0.06,0.92-0.17
		c0.24-0.11,0.45-0.32,0.65-0.63c0.19-0.3,0.4-0.74,0.62-1.3l4.69-11.29h2.27l4.67,11.33c0.29,0.69,0.59,1.21,0.92,1.55
		c0.32,0.34,0.73,0.51,1.22,0.51v0.93h-6.94v-0.93c0.19,0,0.38-0.01,0.57-0.03c0.2-0.02,0.36-0.08,0.5-0.18
		c0.14-0.1,0.21-0.26,0.21-0.48c0-0.16-0.04-0.4-0.13-0.71c-0.09-0.32-0.19-0.63-0.3-0.93l-0.61-1.58l-0.17-0.56l-2.03-5.67h-0.09
		l-2.29,5.67l-0.17,0.56l-0.74,1.86c-0.06,0.19-0.12,0.4-0.2,0.63c-0.07,0.23-0.11,0.44-0.11,0.63c0,0.35,0.11,0.57,0.33,0.66
		c0.22,0.09,0.6,0.14,1.14,0.14V50.79z"/>
	<path class="st0" d="M37.41,43.46l0.82,0.02c0.72-0.04,1.33-0.16,1.82-0.35c0.49-0.19,0.86-0.5,1.11-0.94
		c0.25-0.44,0.38-1.05,0.38-1.83c0-0.82-0.22-1.48-0.66-1.98c-0.44-0.5-1.17-0.75-2.17-0.75c-0.23,0-0.45,0-0.67,0.01
		c-0.22,0.01-0.43,0.03-0.63,0.06V43.46z M39.56,50.79h-7.37v-0.93c0.55,0,0.97-0.04,1.25-0.13c0.29-0.09,0.49-0.27,0.6-0.56
		c0.11-0.29,0.16-0.73,0.16-1.32V39.2c0-0.43-0.05-0.77-0.14-1.02c-0.09-0.24-0.29-0.42-0.57-0.52c-0.29-0.1-0.72-0.15-1.3-0.15
		v-0.93h7.05c1.01,0,1.94,0.11,2.8,0.33c0.86,0.22,1.55,0.6,2.08,1.12c0.53,0.53,0.79,1.25,0.79,2.17c0,0.79-0.16,1.43-0.48,1.92
		c-0.32,0.49-0.74,0.87-1.25,1.15c-0.52,0.27-1.08,0.48-1.69,0.63v0.11c0.23,0.14,0.48,0.38,0.74,0.7c0.26,0.32,0.61,0.8,1.06,1.44
		c0.45,0.64,1.06,1.5,1.84,2.6c0.33,0.48,0.67,0.78,1.03,0.91c0.35,0.13,0.77,0.19,1.27,0.19v0.93H42.5
		c-0.49-0.86-0.89-1.58-1.21-2.14c-0.32-0.56-0.59-1.03-0.81-1.39c-0.22-0.37-0.43-0.7-0.61-1.01s-0.38-0.63-0.59-0.97
		c-0.19-0.33-0.38-0.54-0.57-0.63c-0.2-0.09-0.48-0.13-0.85-0.13h-0.43v3.35c0,0.58,0.05,1.01,0.15,1.3c0.1,0.29,0.3,0.48,0.61,0.56
		c0.3,0.09,0.76,0.13,1.38,0.13V50.79z"/>
	<path class="st0" d="M58.8,50.79h-7.42v-0.93c0.63,0,1.1-0.05,1.4-0.14c0.29-0.09,0.49-0.3,0.58-0.62c0.09-0.32,0.14-0.8,0.14-1.45
		V37.8h-0.97c-0.79,0-1.39,0.09-1.78,0.28c-0.4,0.19-0.68,0.51-0.85,0.95c-0.17,0.45-0.34,1.06-0.5,1.84h-1.08l0.24-4.28h13.17
		l0.2,4.28h-1.08c-0.16-0.78-0.33-1.39-0.51-1.84c-0.18-0.45-0.46-0.76-0.85-0.95c-0.39-0.19-0.99-0.28-1.79-0.28h-0.95v9.86
		c0,0.65,0.05,1.13,0.14,1.45c0.09,0.32,0.29,0.52,0.58,0.62c0.3,0.09,0.75,0.14,1.35,0.14V50.79z"/>
	<path class="st0" d="M71.7,46.23h-5.58l0.39-1.12h4.8L71.7,46.23z M66.97,50.79h-4.93v-0.93c0.37,0,0.68-0.06,0.92-0.17
		c0.24-0.11,0.45-0.32,0.65-0.63c0.19-0.3,0.4-0.74,0.62-1.3l4.69-11.29h2.27l4.67,11.33c0.29,0.69,0.59,1.21,0.92,1.55
		c0.32,0.34,0.73,0.51,1.22,0.51v0.93h-6.94v-0.93c0.19,0,0.38-0.01,0.57-0.03c0.2-0.02,0.36-0.08,0.5-0.18
		c0.14-0.1,0.21-0.26,0.21-0.48c0-0.16-0.04-0.4-0.13-0.71c-0.09-0.32-0.19-0.63-0.3-0.93l-0.61-1.58l-0.17-0.56l-2.03-5.67H69
		l-2.29,5.67l-0.17,0.56l-0.74,1.86c-0.06,0.19-0.12,0.4-0.2,0.63c-0.07,0.23-0.11,0.44-0.11,0.63c0,0.35,0.11,0.57,0.33,0.66
		c0.22,0.09,0.6,0.14,1.14,0.14V50.79z"/>
	<path class="st0" d="M85.48,43.46l0.82,0.02c0.72-0.04,1.33-0.16,1.82-0.35c0.49-0.19,0.86-0.5,1.11-0.94
		c0.25-0.44,0.38-1.05,0.38-1.83c0-0.82-0.22-1.48-0.66-1.98c-0.44-0.5-1.17-0.75-2.17-0.75c-0.23,0-0.45,0-0.67,0.01
		c-0.22,0.01-0.43,0.03-0.63,0.06V43.46z M87.62,50.79h-7.37v-0.93c0.55,0,0.97-0.04,1.25-0.13c0.29-0.09,0.49-0.27,0.6-0.56
		c0.11-0.29,0.16-0.73,0.16-1.32V39.2c0-0.43-0.05-0.77-0.14-1.02c-0.09-0.24-0.29-0.42-0.57-0.52c-0.29-0.1-0.72-0.15-1.3-0.15
		v-0.93h7.05c1.01,0,1.94,0.11,2.8,0.33c0.86,0.22,1.55,0.6,2.08,1.12c0.53,0.53,0.79,1.25,0.79,2.17c0,0.79-0.16,1.43-0.48,1.92
		c-0.32,0.49-0.74,0.87-1.25,1.15c-0.52,0.27-1.08,0.48-1.69,0.63v0.11c0.23,0.14,0.48,0.38,0.74,0.7c0.26,0.32,0.61,0.8,1.06,1.44
		c0.45,0.64,1.06,1.5,1.84,2.6c0.33,0.48,0.67,0.78,1.03,0.91c0.35,0.13,0.77,0.19,1.27,0.19v0.93h-4.91
		c-0.49-0.86-0.89-1.58-1.21-2.14c-0.32-0.56-0.59-1.03-0.81-1.39c-0.22-0.37-0.42-0.7-0.61-1.01c-0.18-0.3-0.38-0.63-0.59-0.97
		c-0.19-0.33-0.38-0.54-0.57-0.63c-0.2-0.09-0.48-0.13-0.85-0.13h-0.43v3.35c0,0.58,0.05,1.01,0.15,1.3c0.1,0.29,0.3,0.48,0.61,0.56
		c0.3,0.09,0.76,0.13,1.38,0.13V50.79z"/>
	<path class="st0" d="M58.38,1.57c1.35,0.99,2.23,2.59,2.23,4.39c0,3.01-2.44,5.44-5.44,5.44h-5.39h-3.72h-5.39
		c-3.01,0-5.44-2.44-5.44-5.44c0-1.8,0.88-3.4,2.23-4.39c-2.46,1.19-4.15,3.71-4.15,6.63c0,4.07,3.3,7.36,7.36,7.36h1.45l2.8,11.97
		h6.53l2.8-11.97h0.91c4.07,0,7.36-3.3,7.36-7.36C62.53,5.28,60.84,2.76,58.38,1.57"/>
</g>
</svg>
